PathFileType	4	(X/Y/Z)	OpenSim_Sub08_EMGBaseline_Magnet.trc
DataRate	CameraRate	NumFrames	NumMarkers	Units	OrigDataRate	OrigDataStartFrame	OrigNumFrames
100	100	16	8	m	100	5823	6654
Frame#	Time	torso_imu_offset_imu	pelvis_imu_offset_imu	tibia_r_imu_offset_imu	femur_r_imu_offset_imu	tibia_l_imu_offset_imu	femur_l_imu_offset_imu	toes_r_imu_offset_imu	toes_l_imu_offset_imu
				X1	Y1	Z1	X2	Y2	Z2	X3	Y3	Z3	X4	Y4	Z4	X5	Y5	Z5	X6	Y6	Z6	X7	Y7	Z7	X8		Y8	Z8	

5823	58.22000000	-0.94768421	-0.11721719	0.03611799	-0.62885679	0.08664452	-0.69881665	-0.11216237	-0.79306366	-0.12620163	-0.78951720	-0.30498003	-0.08884801	-0.68808167	0.30700208	0.32278594	-0.72546462	0.15826249	0.37217328	-0.50007849	-0.75117982	0.15408957	-0.70383922	-0.22011043	-0.36137550
5824	58.23000000	-0.94678278	-0.11218841	0.03625163	-0.62202000	0.08848758	-0.69273438	-0.10638004	-0.79258379	-0.11677268	-0.80030645	-0.28959256	-0.09307557	-0.68013525	0.31506316	0.32382436	-0.72632044	0.15190363	0.37839991	-0.49173251	-0.75687989	0.10951263	-0.71055054	-0.22444015	-0.36227943
5825	58.24000000	-0.94369631	-0.11499181	0.03568910	-0.63212014	0.09636829	-0.68768239	-0.10413652	-0.79349803	-0.12195099	-0.80587640	-0.27295941	-0.09905009	-0.67753008	0.31263637	0.33057948	-0.72165276	0.14851397	0.38669917	-0.47962243	-0.76333391	0.07512360	-0.71129088	-0.21658334	-0.36086596
5826	58.25000000	-0.94927071	-0.12262986	0.03869388	-0.63367669	0.09630920	-0.69052090	-0.10827024	-0.79449247	-0.12868240	-0.80898794	-0.25117724	-0.10352186	-0.67621902	0.31277121	0.33402942	-0.71750700	0.15198012	0.39445117	-0.46532670	-0.76499220	0.06109526	-0.71209585	-0.20875477	-0.35611068
5827	58.26000000	-0.95086284	-0.12174187	0.03867697	-0.62976749	0.10674769	-0.69006192	-0.11718886	-0.78478802	-0.13927766	-0.81470006	-0.23294040	-0.10459806	-0.66825039	0.31731707	0.34250866	-0.71600684	0.15867700	0.40101509	-0.46170380	-0.76227502	0.05437836	-0.70995905	-0.20777663	-0.36060342
5828	58.27000000	-0.94378339	-0.12126167	0.03962417	-0.63275956	0.11750748	-0.69155549	-0.13074308	-0.77890477	-0.16352677	-0.82105036	-0.21953566	-0.10386907	-0.66627571	0.31932606	0.35075479	-0.71016385	0.16510697	0.40337337	-0.45723877	-0.76245660	0.04210702	-0.70687192	-0.20874264	-0.35879140
5829	58.28000000	-0.94042872	-0.12217779	0.04418572	-0.63614992	0.12261625	-0.68785552	-0.14433518	-0.78078479	-0.18288367	-0.82647483	-0.20871848	-0.10594650	-0.65822870	0.33041609	0.34840114	-0.70807833	0.16793582	0.40750354	-0.45819996	-0.74946320	0.02103118	-0.70715259	-0.20654274	-0.35880650
5830	58.29000000	-0.94603860	-0.11997249	0.04179576	-0.63512445	0.13055146	-0.68596746	-0.16629549	-0.76767708	-0.20731479	-0.83516834	-0.19532076	-0.10375908	-0.65356046	0.33519659	0.35205321	-0.70497972	0.17613811	0.40891058	-0.47052960	-0.73768091	-0.00439971	-0.70830841	-0.20788783	-0.36295947
5831	58.30000000	-0.95245175	-0.12212497	0.04542260	-0.63265815	0.14219892	-0.68769402	-0.18415650	-0.75440411	-0.22073336	-0.83719504	-0.17620691	-0.09910266	-0.65361105	0.34151098	0.34689831	-0.70446867	0.18395883	0.41295209	-0.48791405	-0.71946558	-0.03027756	-0.70871679	-0.20984183	-0.36195829
5832	58.31000000	-0.94458530	-0.12048563	0.04684180	-0.63331872	0.15009517	-0.68035172	-0.20735896	-0.74535356	-0.23161059	-0.84321677	-0.16685981	-0.08844580	-0.65463458	0.34766459	0.34925871	-0.70062115	0.19033753	0.41359287	-0.49848237	-0.69865173	-0.06019040	-0.70709636	-0.21353203	-0.35517032
5833	58.32000000	-0.94267891	-0.12160658	0.04943786	-0.63841338	0.15370579	-0.67667083	-0.23270591	-0.73673246	-0.23783494	-0.84337375	-0.15637297	-0.08756116	-0.64818945	0.34781342	0.35344950	-0.70146632	0.19697585	0.41026327	-0.50978961	-0.67708710	-0.09367057	-0.71151736	-0.21505937	-0.34350736
5834	58.33000000	-0.94148303	-0.12601099	0.05286797	-0.64228254	0.15764144	-0.67795530	-0.26051793	-0.72939405	-0.23607932	-0.84324131	-0.13786934	-0.08168371	-0.64678253	0.35876632	0.35311212	-0.69206113	0.20359585	0.41450599	-0.51780299	-0.64735656	-0.12124965	-0.71328838	-0.20945435	-0.35184347
5835	58.34000000	-0.94259736	-0.12328947	0.05426597	-0.64207812	0.16345411	-0.68045356	-0.29011465	-0.72297945	-0.22045069	-0.84926691	-0.12983899	-0.07706060	-0.64031957	0.36488570	0.35081825	-0.68774378	0.21002946	0.41199526	-0.52632649	-0.62392115	-0.14917025	-0.70586269	-0.21237271	-0.36207454
5836	58.35000000	-0.94726778	-0.12834771	0.05048149	-0.63723332	0.17163613	-0.67903260	-0.31856671	-0.71314619	-0.18040147	-0.85155790	-0.12549865	-0.07492971	-0.63749902	0.37125701	0.35084204	-0.69166168	0.21734953	0.40864424	-0.52981747	-0.59723682	-0.17128686	-0.70312042	-0.21938561	-0.36068914
5837	58.36000000	-0.94327592	-0.12368230	0.05554089	-0.64023014	0.17688006	-0.67634177	-0.35483620	-0.70484401	-0.14524873	-0.85596883	-0.11919515	-0.06903655	-0.63883445	0.37790367	0.35026068	-0.69230248	0.22618410	0.41401500	-0.54013516	-0.56598500	-0.19624829	-0.70302468	-0.21601316	-0.35654829
5838	58.37000000	-0.94268366	-0.12284726	0.06277132	-0.64192649	0.18062294	-0.67198843	-0.38513244	-0.69697091	-0.11201172	-0.85606705	-0.11179994	-0.06357451	-0.63129957	0.38607713	0.35115503	-0.68911345	0.23485576	0.41407717	-0.54976730	-0.53966095	-0.21991787	-0.70772160	-0.21345370	-0.35887359
